<svg xmlns="http://www.w3.org/2000/svg" width="32" height="32" xmlns:v="https://vecta.io/nano"><path opacity=".1" d="M14 0h4v8h-4z"><animate attributeName="opacity" from="1" to=".1" dur="1s" repeatCount="indefinite" begin="0"/></path><path opacity=".1" d="M14 0h4v8h-4z" transform="rotate(45 16 16)"><animate attributeName="opacity" from="1" to=".1" dur="1s" repeatCount="indefinite" begin="0.125s"/></path><path opacity=".1" d="M14 0h4v8h-4z" transform="rotate(90 16 16)"><animate attributeName="opacity" from="1" to=".1" dur="1s" repeatCount="indefinite" begin="0.25s"/></path><path opacity=".1" d="M14 0h4v8h-4z" transform="rotate(135 16 16)"><animate attributeName="opacity" from="1" to=".1" dur="1s" repeatCount="indefinite" begin="0.375s"/></path><path opacity=".1" d="M14 0h4v8h-4z" transform="rotate(180 16 16)"><animate attributeName="opacity" from="1" to=".1" dur="1s" repeatCount="indefinite" begin="0.5s"/></path><path opacity=".1" d="M14 0h4v8h-4z" transform="rotate(225 16 16)"><animate attributeName="opacity" from="1" to=".1" dur="1s" repeatCount="indefinite" begin="0.675s"/></path><path opacity=".1" d="M14 0h4v8h-4z" transform="rotate(270 16 16)"><animate attributeName="opacity" from="1" to=".1" dur="1s" repeatCount="indefinite" begin="0.75s"/></path><path opacity=".1" d="M14 0h4v8h-4z" transform="rotate(315 16 16)"><animate attributeName="opacity" from="1" to=".1" dur="1s" repeatCount="indefinite" begin="0.875s"/></path></svg>