<svg xmlns="http://www.w3.org/2000/svg" viewBox="0 0 510.26 93.8" xmlns:v="https://vecta.io/nano"><path d="M0 0h510.26v93.8H0z" fill="#fff"/><path d="M202.48 18.06A80.07 80.07 0 0 0 196.7 2l-1-2H0v93.8h180a77.52 77.52 0 0 0 8.62-9.52 72.58 72.58 0 0 0 8.08-13.18 85.53 85.53 0 0 0 5.81-16 74.72 74.72 0 0 0 2.15-18.55 76.43 76.43 0 0 0-2.18-18.49zM60.65 31.73h-13V71.2h-10.7V31.73h-13v-9.47h36.7zm36.57 0h-19.4v8.44h18v9.47h-18v12.1h19.4v9.47h-30.1V22.26h30.1zm37 35.8Q129 72 120.06 72a33.89 33.89 0 0 1-9-1.07 41.79 41.79 0 0 1-7.19-2.7V56.57H105a23.79 23.79 0 0 0 7.4 4.79 20.72 20.72 0 0 0 7.91 1.64 21 21 0 0 0 2.55-.2 8.88 8.88 0 0 0 2.58-.66 6.44 6.44 0 0 0 2-1.48 3.86 3.86 0 0 0 .79-2.64 3.8 3.8 0 0 0-1.15-2.77 7.5 7.5 0 0 0-3.37-1.79q-2.33-.65-4.92-1.23a32.66 32.66 0 0 1-4.87-1.46 15.18 15.18 0 0 1-7.5-5.43 15 15 0 0 1-2.29-8.52 13.82 13.82 0 0 1 5.2-11.14q5.2-4.3 13.35-4.3a35.35 35.35 0 0 1 8.09.94 33.4 33.4 0 0 1 6.92 2.35v11.3h-1.13a21.23 21.23 0 0 0-6.1-3.94 18.14 18.14 0 0 0-7.37-1.59 16.39 16.39 0 0 0-2.64.21 9.21 9.21 0 0 0-2.53.8 4.89 4.89 0 0 0-1.85 1.49 4 4 0 0 0 .47 5.24 12.58 12.58 0 0 0 4.71 1.89l4.37 1.08a40.12 40.12 0 0 1 4.51 1.45 14.9 14.9 0 0 1 7 5 13.82 13.82 0 0 1 2.26 8.21 14.79 14.79 0 0 1-5.19 11.74zm45.2-35.8h-13V71.2h-10.74V31.73h-13v-9.47h36.72z" fill="#ec1c24"/><path d="M413 34.5a8.21 8.21 0 0 0-3-2.82 7.8 7.8 0 0 0-7.12 0 8.65 8.65 0 0 0-3.06 2.79 15.13 15.13 0 0 0-2.1 5 30.25 30.25 0 0 0-.81 7.42 29.75 29.75 0 0 0 .79 7.36 16.07 16.07 0 0 0 2.08 5 8.33 8.33 0 0 0 3 2.82 7.7 7.7 0 0 0 3.64.91A7.6 7.6 0 0 0 410 62a8.47 8.47 0 0 0 3-2.87 16.11 16.11 0 0 0 2.14-5.21 31.53 31.53 0 0 0 .7-7.07 29.48 29.48 0 0 0-.8-7.4 15.87 15.87 0 0 0-2.04-4.94zM295.14 48.14a22.27 22.27 0 0 0-4.7 1.15 7.18 7.18 0 0 0-3.33 2.59 7.69 7.69 0 0 0-1.17 4.4 13.54 13.54 0 0 0 .23 2.75 5 5 0 0 0 1.31 2.38 5.84 5.84 0 0 0 2.3 1.58 11.26 11.26 0 0 0 3.84.49 9.42 9.42 0 0 0 4.27-1.09 12.81 12.81 0 0 0 3.67-2.81l.3-.3v-12l-.4.05zm-40.08 0a22.29 22.29 0 0 0-4.7 1.15 7.2 7.2 0 0 0-3.36 2.59 7.68 7.68 0 0 0-1.17 4.4 13.42 13.42 0 0 0 .23 2.75 5 5 0 0 0 1.31 2.38 5.83 5.83 0 0 0 2.3 1.58 11.24 11.24 0 0 0 3.84.49 9.42 9.42 0 0 0 4.27-1.09 12.77 12.77 0 0 0 3.67-2.81l.3-.32v-12l-.4.05zm187.4-13.64a8.22 8.22 0 0 0-3-2.82 7.8 7.8 0 0 0-7.12 0 8.67 8.67 0 0 0-3.06 2.79 15.13 15.13 0 0 0-2.1 5 30.34 30.34 0 0 0-.81 7.42 29.75 29.75 0 0 0 .79 7.36 16.07 16.07 0 0 0 2.08 5 8.34 8.34 0 0 0 3 2.82 7.7 7.7 0 0 0 3.64.91 7.59 7.59 0 0 0 3.61-.99 8.42 8.42 0 0 0 3-2.87 16.07 16.07 0 0 0 2.14-5.21 31.54 31.54 0 0 0 .7-7.07 29.58 29.58 0 0 0-.8-7.4 15.91 15.91 0 0 0-2.07-4.94zM207.3 0l2.05 4.5q5.8 14.22 5.8 32.06 0 17.84-5.8 32.06a93.58 93.58 0 0 1-15.42 25.19h316.32V0zm64.8 71.1h-10.35v-7.16L257.42 68a17 17 0 0 1-2.63 2 15.23 15.23 0 0 1-3.56 1.54 14.74 14.74 0 0 1-4 .52 10.61 10.61 0 0 1-8.47-4 15.63 15.63 0 0 1-3.48-10.48 17.31 17.31 0 0 1 1.72-8.35 12.9 12.9 0 0 1 5-5 24.6 24.6 0 0 1 8.24-2.7c3.36-.55 6.9-1 10.56-1.23l1-.07V38.8c0-3.2-1.07-5.47-3.17-6.75-1.93-1.17-4.75-1.77-8.36-1.77a18.87 18.87 0 0 0-7 1.5l-4.67 2V23.9c1.33-.4 3.18-.83 5.6-1.3a44.65 44.65 0 0 1 8.81-.89c6.83 0 11.8 1.3 14.76 3.9s4.4 6.68 4.4 12.26zm40.08 0h-10.34v-7.16L297.5 68a17.19 17.19 0 0 1-2.63 2 15.16 15.16 0 0 1-3.56 1.54 14.7 14.7 0 0 1-4 .52 10.61 10.61 0 0 1-8.47-4 15.64 15.64 0 0 1-3.48-10.48 17.31 17.31 0 0 1 1.77-8.37 12.89 12.89 0 0 1 5-5 24.61 24.61 0 0 1 8.24-2.7c3.36-.55 6.9-1 10.56-1.23l1-.07v-1.4c0-3.2-1.07-5.47-3.17-6.75-1.93-1.17-4.74-1.77-8.36-1.77a18.87 18.87 0 0 0-7 1.5l-4.68 2v-9.9c1.33-.4 3.18-.83 5.6-1.3a44.64 44.64 0 0 1 8.77-.88c6.83 0 11.8 1.3 14.75 3.9s4.4 6.67 4.4 12.26zm38.9 0h-9.52L325.3 37.83V71.1h-9.05V22.63h11.8l14 27.76V22.63h9.05zm28.07 0L367.7 51.7l-2.3 3.6v15.8h-9.9V22.63h9.9v22l13.68-22h11.4l-14.93 22.43 15.7 26zm71.2-5.83q-5.26 6.8-14.54 6.8-9.28 0-14.52-6.8c-.08-.1-.14-.2-.22-.32-.08.1-.14.22-.22.32q-5.26 6.8-14.54 6.8-9.28 0-14.52-6.8-5.26-6.8-5.26-18.4 0-11.58 5.26-18.45 5.26-6.78 14.52-6.78 9.26 0 14.52 6.78c.08.1.15.23.23.33.08-.1.15-.23.23-.33q5.26-6.78 14.52-6.78 9.26 0 14.52 6.78 5.3 6.78 5.3 18.45 0 11.67-5.26 18.4zm39.1-21a15.12 15.12 0 0 1-2.57 5.23 16.08 16.08 0 0 1-5.11 4.33 15.07 15.07 0 0 1-7 1.46h-6.15v15.8h-9.9V22.63H475a20.58 20.58 0 0 1 6.16.8 13.16 13.16 0 0 1 4.44 2.39 12.3 12.3 0 0 1 3.54 4.92 19 19 0 0 1 1.22 7.2 22.79 22.79 0 0 1-.88 6.36zM477.2 32.72a7.58 7.58 0 0 0-3-.85q-1.46-.08-3.88-.08h-1.7v14.38h2.8a18.25 18.25 0 0 0 4.13-.39 5.38 5.38 0 0 0 2.72-1.55 6.2 6.2 0 0 0 1.37-2.47 12.64 12.64 0 0 0 .42-3.5 6.74 6.74 0 0 0-.87-3.5 5.11 5.11 0 0 0-2.01-2.04z" fill="#f6921e"/></svg>